<svg xmlns="http://www.w3.org/2000/svg" viewBox="0 0 111 25"><g fill="#FFF"><path d="M23 2.5h7.4c2.5 0 4 1.7 4 3.8 0 1.6-.7 2.8-2.2 3.4 1.5.4 1.9 1.8 2 3.2.1.9 0 2.5.6 3.2h-3c-.4-.9-.3-2.2-.5-3.3-.2-1.4-.8-2.1-2.3-2.1h-3v5.4h-3V2.5zm3 6.2h3.3c1.3 0 2.1-.6 2.1-2 0-1.3-.7-1.9-2.1-1.9H26v3.9zM35.9 2.5h10.3V5H39v3h6.7v2.3H39v3.4h7.4v2.5H35.9V2.5zM47.4 2.5h5.9c3.6 0 6.2 2.2 6.2 6.8 0 4-2 6.9-6.2 6.9h-5.9V2.5zm3 11.2h2.7c1.7 0 3.4-1.1 3.4-4.1 0-2.8-1-4.5-4-4.5h-2.2v8.6zM60.8 2.5h6.5c2.6 0 4.2 1.4 4.2 3.6 0 1.7-.7 3-2.4 3.5 1.6.3 1.9 1.5 2.1 2.8.1 1.3 0 2.8.8 3.8h-2c-.5-.6-.2-2-.5-3.4-.2-1.3-.5-2.5-2.3-2.5h-4.5v5.9h-1.8V2.5zm5.7 6.3c1.7 0 3.2-.4 3.2-2.4C69.6 5 68.9 4 67.2 4h-4.5v4.8h3.8zM78.9 2.2c4.4 0 6.6 3.5 6.6 7.2s-2.2 7.2-6.6 7.2c-4.4 0-6.6-3.5-6.6-7.2 0-3.8 2.2-7.2 6.6-7.2zm0 12.8c3.3 0 4.7-2.9 4.7-5.7 0-2.8-1.4-5.7-4.7-5.7-3.3 0-4.7 2.9-4.7 5.7-.1 2.8 1.3 5.7 4.7 5.7zM96.4 6.6c-.4-1.9-1.9-2.9-3.8-2.9-3.3 0-4.7 2.7-4.7 5.6 0 3.1 1.4 5.7 4.7 5.7 2.4 0 3.8-1.7 4-4h1.8c-.3 3.4-2.5 5.5-5.9 5.5-4.3 0-6.3-3.2-6.3-7.2s2.3-7.2 6.5-7.2c2.9 0 5.2 1.5 5.7 4.5h-2zM99.6 2.5h1.8v6.8l7-6.8h2.4L105 8l6 8.2h-2.3l-5-6.9-2.3 2.1v4.8h-1.8V2.5z"/></g><g fill="#FFF"><path d="M22.9 18.2h2.7c1.1 0 1.7.6 1.7 1.5 0 .7-.3 1.3-1 1.4.7.1.8.6.9 1.2 0 .6 0 1.2.3 1.6h-.8c-.2-.2-.1-.8-.2-1.4-.1-.6-.2-1-1-1h-1.9v2.4h-.8v-5.7zm2.3 2.6c.7 0 1.3-.2 1.3-1 0-.6-.3-1-1-1h-1.9v2h1.6zM28.2 18.2h3.9v.6h-3.2v1.8h3v.6h-3v2h3.2v.6h-4v-5.6zM36.2 19.9c-.1-.8-.6-1.2-1.4-1.2-.6 0-1.3.2-1.3 1 0 .7.9.8 1.8 1 .9.2 1.8.5 1.8 1.6 0 1.2-1.2 1.7-2.2 1.7-1.3 0-2.4-.6-2.4-2h.7c0 1 .8 1.4 1.7 1.4.7 0 1.4-.2 1.4-1s-.9-.9-1.8-1.1c-.9-.2-1.8-.5-1.8-1.5 0-1.2 1-1.7 2.1-1.7 1.2 0 2.1.6 2.1 1.8h-.7zM40.3 18.1c1.8 0 2.7 1.4 2.7 3s-.9 3-2.7 3c-1.8 0-2.7-1.4-2.7-3s.9-3 2.7-3zm0 5.3c1.4 0 2-1.2 2-2.4s-.6-2.4-2-2.4-2 1.2-2 2.4.6 2.4 2 2.4zM48.3 21.9c0 1.4-.8 2.2-2.2 2.2-1.5 0-2.3-.7-2.3-2.2v-3.7h.8v3.7c0 1 .6 1.6 1.6 1.6s1.5-.6 1.5-1.6v-3.7h.8v3.7zM49.3 18.2H52c1.1 0 1.7.6 1.7 1.5 0 .7-.3 1.3-1 1.4.7.1.8.6.9 1.2 0 .6 0 1.2.3 1.6h-.8c-.2-.2-.1-.8-.2-1.4-.1-.6-.2-1-1-1H50v2.4h-.8v-5.7zm2.4 2.6c.7 0 1.3-.2 1.3-1 0-.6-.3-1-1-1h-1.9v2h1.6zM58.6 19.9c-.2-.8-.8-1.2-1.6-1.2-1.4 0-1.9 1.1-1.9 2.3 0 1.3.6 2.4 1.9 2.4 1 0 1.6-.7 1.6-1.6h.8c-.1 1.4-1 2.3-2.5 2.3-1.8 0-2.6-1.3-2.6-3s.9-3 2.7-3c1.2 0 2.2.6 2.4 1.9h-.8zM60.2 18.2h3.9v.6H61v1.8h3v.6h-3v2h3.2v.6h-4v-5.6zM68.2 19.9c-.1-.8-.6-1.2-1.4-1.2-.6 0-1.3.2-1.3 1 0 .7.9.8 1.8 1 .9.2 1.8.5 1.8 1.6 0 1.2-1.2 1.7-2.2 1.7-1.3 0-2.4-.6-2.4-2h.7c0 1 .8 1.4 1.7 1.4.7 0 1.4-.2 1.4-1s-.9-.9-1.8-1.1c-.9-.2-1.8-.5-1.8-1.5 0-1.2 1-1.7 2.1-1.7 1.2 0 2.1.6 2.1 1.8h-.7z"/></g><g fill="#FFF"><path d="M12.4 24.6c.1.1.2.3.5.1.8-.6 3.3-2.3 3.7-2.7.4-.4 2.3-1.6 2.4-3.7.1-2.1.3-4.6.7-5.4.4-.8.8-3 .5-4.1-.3-1.1-.7-3.1-.4-4.2.3-1.1.4-2.3.6-2.9-1.1.8-1.8 2.4-2 3.8-.2 1.5-1.2 1.9-1.4 4.6-.1 1.5.6 3.6.1 6.3-.3 1.6-.7 3.1-1.6 4.1-.9 1.1-3.1 4.1-3.1 4.1zM9.3 1.5c.7.7 4 1.7 5.4 5.2.5 1.3 1 4.4.4 7.9s-1.4 5.2-2.3 6.8c-.9 1.6-1.7 3-1.7 3l-.7-.1s2.8-4.7 3.1-7.9.8-5.5-.1-8.7C12.3 4 9.3 1.5 9.3 1.5z"/><path d="M10 23.9s.6-4.5.1-6.8c-.4-2-1.6-2.8-2.3-3.6-1.7-2.1-2.6-2.3-3.3-5.6C3.7 3.7 5.6 0 5.6 0s.5 2.3 1.2 4c1.2 2.8 4.4 4 4.8 6.4.4 2.3-.2 7.9-.6 9.5-.4 1.5-.7 3.7-.7 3.7l-.3.3z"/><path d="M9.1 24.3l.3-.6s-.2-4.7-2-7.1c-2.1-2.9-2.9-2-4.7-3.3C.9 12 0 8.9 0 8.9s.1 2.3.4 3.8.3 3.1 2.3 5.5c1.6 1.9 2.4 1.4 4.1 2.6 1.7 1.2 1.7 3.1 1.7 3.4 0 .3.6.1.6.1z"/></g></svg>